<svg xmlns="http://www.w3.org/2000/svg" width="1400" height="800" viewBox="0 0 1400 800">
  <defs>
    <linearGradient id="bg3" x1="0%" y1="0%" x2="100%" y2="100%">
      <stop offset="0%" style="stop-color:#1a0a14;stop-opacity:1" />
      <stop offset="100%" style="stop-color:#0f0a18;stop-opacity:1" />
    </linearGradient>
    <filter id="glow3">
      <feGaussianBlur stdDeviation="8" result="coloredBlur"/>
      <feMerge><feMergeNode in="coloredBlur"/><feMergeNode in="SourceGraphic"/></feMerge>
    </filter>
    <filter id="shadow3">
      <feDropShadow dx="0" dy="20" stdDeviation="30" flood-color="#f472b6" flood-opacity="0.15"/>
    </filter>
    <clipPath id="screenClip3">
      <rect x="310" y="68" width="780" height="490" rx="4"/>
    </clipPath>
  </defs>

  <rect width="1400" height="800" fill="url(#bg3)"/>
  <ellipse cx="700" cy="500" rx="400" ry="150" fill="#f472b6" opacity="0.04"/>

  <!-- Title -->
  <text x="700" y="38" font-family="Arial" font-size="22" font-weight="700" fill="#f472b6" text-anchor="middle" letter-spacing="4" filter="url(#glow3)">CUSTOMER CHURN PREDICTION</text>
  <text x="700" y="56" font-family="Arial" font-size="11" fill="#ffffff50" text-anchor="middle" letter-spacing="3">ML ANALYTICS · POWER BI · RETENTION INTELLIGENCE</text>

  <!-- Left panel -->
  <rect x="42" y="130" width="280" height="420" rx="10" fill="#1a0c16" opacity="0.95"/>
  <rect x="42" y="130" width="280" height="420" rx="10" fill="none" stroke="#f472b630" stroke-width="1"/>
  <rect x="52" y="140" width="260" height="28" rx="4" fill="#f472b620"/>
  <text x="62" y="159" font-family="Arial" font-size="11" font-weight="bold" fill="#f472b6">📊 CHURN INSIGHTS</text>
  <rect x="52" y="178" width="260" height="1" fill="#ffffff10"/>
  <text x="62" y="198" font-family="Arial" font-size="10" fill="#888">AT-RISK CUSTOMERS</text>
  <rect x="52" y="206" width="260" height="36" rx="4" fill="#f472b610"/>
  <rect x="52" y="206" width="3" height="36" rx="2" fill="#f472b6"/>
  <text x="64" y="220" font-family="Arial" font-size="10" fill="#f472b6">⚠ CUST_4421 — HIGH RISK</text>
  <text x="64" y="235" font-family="Arial" font-size="9" fill="#666">Month-to-Month • $89/mo • 3mo tenure</text>
  <rect x="52" y="250" width="260" height="36" rx="4" fill="#f472b610"/>
  <rect x="52" y="250" width="3" height="36" rx="2" fill="#fbbf24"/>
  <text x="64" y="264" font-family="Arial" font-size="10" fill="#fbbf24">⚡ CUST_3812 — MEDIUM</text>
  <text x="64" y="279" font-family="Arial" font-size="9" fill="#666">One Year • $65/mo • 12mo tenure</text>
  <rect x="52" y="294" width="260" height="36" rx="4" fill="#34d39910"/>
  <rect x="52" y="294" width="3" height="36" rx="2" fill="#34d399"/>
  <text x="64" y="308" font-family="Arial" font-size="10" fill="#34d399">✓ CUST_2201 — RETAINED</text>
  <text x="64" y="323" font-family="Arial" font-size="9" fill="#666">Two Year • $45/mo • 48mo tenure</text>

  <text x="62" y="362" font-family="Arial" font-size="10" fill="#888">CHURN DRIVERS</text>
  <text x="62" y="382" font-family="Arial" font-size="10" fill="#ccc">Contract Type</text>
  <rect x="62" y="388" width="220" height="6" rx="3" fill="#ffffff10"/>
  <rect x="62" y="388" width="198" height="6" rx="3" fill="#f472b6"/>
  <text x="62" y="408" font-family="Arial" font-size="10" fill="#ccc">Tenure</text>
  <rect x="62" y="414" width="220" height="6" rx="3" fill="#ffffff10"/>
  <rect x="62" y="414" width="165" height="6" rx="3" fill="#f472b690"/>
  <text x="62" y="434" font-family="Arial" font-size="10" fill="#ccc">Monthly Charges</text>
  <rect x="62" y="440" width="220" height="6" rx="3" fill="#ffffff10"/>
  <rect x="62" y="440" width="132" height="6" rx="3" fill="#f472b660"/>
  <text x="62" y="475" font-family="Arial" font-size="18" font-weight="bold" fill="#fff">7,043</text>
  <text x="62" y="493" font-family="Arial" font-size="9" fill="#888">Customer Records</text>
  <text x="165" y="475" font-family="Arial" font-size="18" font-weight="bold" fill="#f472b6">26.5%</text>
  <text x="165" y="493" font-family="Arial" font-size="9" fill="#888">Churn Rate</text>
  <text x="62" y="522" font-family="Arial" font-size="10" font-weight="bold" fill="#34d399">12–15% retention lift</text>
  <text x="62" y="536" font-family="Arial" font-size="9" fill="#888">projected campaign improvement</text>

  <!-- Right panel -->
  <rect x="1078" y="130" width="280" height="420" rx="10" fill="#1a0c16" opacity="0.95"/>
  <rect x="1078" y="130" width="280" height="420" rx="10" fill="none" stroke="#f472b630" stroke-width="1"/>
  <rect x="1088" y="140" width="260" height="28" rx="4" fill="#f472b620"/>
  <text x="1098" y="159" font-family="Arial" font-size="11" font-weight="bold" fill="#f472b6">MODEL COMPARISON</text>
  <rect x="1088" y="178" width="260" height="1" fill="#ffffff10"/>
  <text x="1098" y="198" font-family="Arial" font-size="10" fill="#888">Random Forest</text>
  <rect x="1098" y="204" width="240" height="8" rx="3" fill="#ffffff10"/>
  <rect x="1098" y="204" width="211" height="8" rx="3" fill="#34d399"/>
  <text x="1098" y="228" font-family="Arial" font-size="14" font-weight="bold" fill="#34d399">ROC-AUC: 0.88</text>
  <text x="1098" y="248" font-family="Arial" font-size="10" fill="#888">Logistic Regression</text>
  <rect x="1098" y="254" width="240" height="8" rx="3" fill="#ffffff10"/>
  <rect x="1098" y="254" width="180" height="8" rx="3" fill="#fbbf24"/>
  <text x="1098" y="278" font-family="Arial" font-size="14" font-weight="bold" fill="#fbbf24">ROC-AUC: 0.75</text>
  <rect x="1088" y="295" width="260" height="1" fill="#ffffff10"/>
  <text x="1098" y="315" font-family="Arial" font-size="10" fill="#888">TECH STACK</text>
  <rect x="1098" y="323" width="60" height="20" rx="10" fill="#f472b620" stroke="#f472b640" stroke-width="1"/>
  <text x="1128" y="337" font-family="Arial" font-size="10" fill="#f472b6" text-anchor="middle">Python</text>
  <rect x="1168" y="323" width="80" height="20" rx="10" fill="#f472b620" stroke="#f472b640" stroke-width="1"/>
  <text x="1208" y="337" font-family="Arial" font-size="10" fill="#f472b6" text-anchor="middle">Scikit-learn</text>
  <rect x="1098" y="351" width="60" height="20" rx="10" fill="#f472b620" stroke="#f472b640" stroke-width="1"/>
  <text x="1128" y="365" font-family="Arial" font-size="10" fill="#f472b6" text-anchor="middle">Power BI</text>
  <rect x="1168" y="351" width="80" height="20" rx="10" fill="#f472b620" stroke="#f472b640" stroke-width="1"/>
  <text x="1208" y="365" font-family="Arial" font-size="10" fill="#f472b6" text-anchor="middle">Streamlit</text>
  <rect x="1098" y="379" width="55" height="20" rx="10" fill="#f472b620" stroke="#f472b640" stroke-width="1"/>
  <text x="1125" y="393" font-family="Arial" font-size="10" fill="#f472b6" text-anchor="middle">Pandas</text>
  <rect x="1163" y="379" width="40" height="20" rx="10" fill="#f472b620" stroke="#f472b640" stroke-width="1"/>
  <text x="1183" y="393" font-family="Arial" font-size="10" fill="#f472b6" text-anchor="middle">EDA</text>
  <text x="1098" y="430" font-family="Arial" font-size="10" fill="#888">KEY RESULTS</text>
  <text x="1098" y="450" font-family="Arial" font-size="10" fill="#ccc">✦ 88% ROC-AUC achieved</text>
  <text x="1098" y="468" font-family="Arial" font-size="10" fill="#ccc">✦ 85% recall on at-risk customers</text>
  <text x="1098" y="486" font-family="Arial" font-size="10" fill="#ccc">✦ Power BI retention dashboard</text>
  <text x="1098" y="504" font-family="Arial" font-size="10" fill="#ccc">✦ 7,043 customer EDA analysis</text>
  <text x="1098" y="522" font-family="Arial" font-size="10" fill="#34d399">✦ 12–15% retention improvement</text>

  <!-- Monitor frame -->
  <rect x="290" y="58" width="820" height="530" rx="16" fill="#22101c" filter="url(#shadow3)"/>
  <rect x="295" y="63" width="810" height="520" rx="13" fill="#0a0610"/>
  <rect x="308" y="66" width="784" height="494" rx="6" fill="#0f0a18"/>

  <g clip-path="url(#screenClip3)">
    <rect x="310" y="68" width="780" height="490" fill="#0f0f1a"/>
    <!-- Topbar -->
    <rect x="310" y="68" width="780" height="44" fill="#1a1020"/>
    <circle cx="330" cy="90" r="6" fill="#ff5f57"/>
    <circle cx="350" cy="90" r="6" fill="#febc2e"/>
    <circle cx="370" cy="90" r="6" fill="#28c840"/>
    <text x="400" y="95" font-family="monospace" font-size="11" fill="#888">Churn Prediction — Streamlit App</text>
    <rect x="860" y="78" width="120" height="24" rx="4" fill="#f472b620"/>
    <text x="920" y="94" font-family="Arial" font-size="10" fill="#f472b6" text-anchor="middle">7,043 customers</text>

    <!-- Sidebar -->
    <rect x="310" y="112" width="155" height="446" fill="#130b18"/>
    <text x="322" y="135" font-family="Arial" font-size="10" font-weight="bold" fill="#f472b6">📊 CHURN PREDICTOR</text>
    <rect x="316" y="143" width="143" height="26" rx="4" fill="#f472b620"/>
    <text x="326" y="160" font-family="Arial" font-size="10" fill="#f472b6">▶ Dashboard</text>
    <text x="326" y="184" font-family="Arial" font-size="10" fill="#666">  Predict</text>
    <text x="326" y="204" font-family="Arial" font-size="10" fill="#666">  Churn Drivers</text>
    <text x="326" y="224" font-family="Arial" font-size="10" fill="#666">  Power BI</text>
    <rect x="316" y="455" width="143" height="65" rx="4" fill="#f472b60a"/>
    <text x="326" y="472" font-family="Arial" font-size="9" fill="#888">Best Model</text>
    <text x="326" y="488" font-family="Arial" font-size="12" font-weight="bold" fill="#f472b6">88% AUC</text>
    <text x="326" y="504" font-family="Arial" font-size="9" fill="#888">85% Recall</text>

    <!-- Main content -->
    <text x="482" y="133" font-family="Arial" font-size="13" font-weight="bold" fill="#fff">Churn Analysis Dashboard</text>
    <text x="482" y="149" font-family="Arial" font-size="9" fill="#888">7,043 customers • 12–15% projected retention improvement</text>

    <!-- KPI cards -->
    <rect x="482" y="160" width="115" height="58" rx="5" fill="#1e1428"/>
    <text x="494" y="178" font-family="Arial" font-size="9" fill="#888">Total Customers</text>
    <text x="494" y="198" font-family="Arial" font-size="16" font-weight="bold" fill="#fff">7,043</text>
    <text x="494" y="212" font-family="Arial" font-size="8" fill="#888">records</text>

    <rect x="608" y="160" width="115" height="58" rx="5" fill="#1e1428"/>
    <text x="620" y="178" font-family="Arial" font-size="9" fill="#888">Churn Rate</text>
    <text x="620" y="198" font-family="Arial" font-size="16" font-weight="bold" fill="#f472b6">26.5%</text>
    <text x="620" y="212" font-family="Arial" font-size="8" fill="#f472b6">1,869 at risk</text>

    <rect x="734" y="160" width="115" height="58" rx="5" fill="#1e1428"/>
    <text x="746" y="178" font-family="Arial" font-size="9" fill="#888">Recall Score</text>
    <text x="746" y="198" font-family="Arial" font-size="16" font-weight="bold" fill="#34d399">85%</text>
    <text x="746" y="212" font-family="Arial" font-size="8" fill="#888">at-risk class</text>

    <rect x="860" y="160" width="230" height="58" rx="5" fill="#f472b615" stroke="#f472b625" stroke-width="1"/>
    <text x="872" y="178" font-family="Arial" font-size="9" fill="#888">Top Churn Driver</text>
    <text x="872" y="198" font-family="Arial" font-size="13" font-weight="bold" fill="#fff">Month-to-Month</text>
    <text x="872" y="212" font-family="Arial" font-size="8" fill="#f472b6">3.2× higher churn vs annual</text>

    <!-- Churn by contract chart -->
    <rect x="482" y="232" width="310" height="200" rx="5" fill="#1e1428"/>
    <text x="494" y="250" font-family="Arial" font-size="10" font-weight="bold" fill="#fff">Churn by Contract Type</text>
    <text x="494" y="276" font-family="Arial" font-size="9" fill="#888">Month-to-Month</text>
    <rect x="494" y="282" width="220" height="14" rx="3" fill="#f472b6"/>
    <text x="720" y="293" font-family="Arial" font-size="9" fill="#f472b6">42.7%</text>
    <text x="494" y="312" font-family="Arial" font-size="9" fill="#888">One Year</text>
    <rect x="494" y="318" width="100" height="14" rx="3" fill="#f472b680"/>
    <text x="600" y="329" font-family="Arial" font-size="9" fill="#f472b6">11.3%</text>
    <text x="494" y="348" font-family="Arial" font-size="9" fill="#888">Two Year</text>
    <rect x="494" y="354" width="26" height="14" rx="3" fill="#f472b640"/>
    <text x="526" y="365" font-family="Arial" font-size="9" fill="#f472b6">2.9%</text>
    <text x="494" y="392" font-family="Arial" font-size="9" fill="#888">Avg Tenure (churned)</text>
    <rect x="494" y="398" width="65" height="14" rx="3" fill="#fbbf24"/>
    <text x="565" y="409" font-family="Arial" font-size="9" fill="#fbbf24">10 months</text>

    <!-- Donut chart -->
    <rect x="802" y="232" width="200" height="200" rx="5" fill="#1e1428"/>
    <text x="902" y="250" font-family="Arial" font-size="10" font-weight="bold" fill="#fff" text-anchor="middle">Churn Split</text>
    <circle cx="902" cy="345" r="60" fill="none" stroke="#1e1428" stroke-width="22"/>
    <circle cx="902" cy="345" r="60" fill="none" stroke="#f472b6" stroke-width="22" stroke-dasharray="99 314" stroke-dashoffset="0"/>
    <circle cx="902" cy="345" r="60" fill="none" stroke="#34d399" stroke-width="22" stroke-dasharray="215 314" stroke-dashoffset="-99"/>
    <text x="902" y="340" font-family="Arial" font-size="16" font-weight="bold" fill="#fff" text-anchor="middle">26.5%</text>
    <text x="902" y="356" font-family="Arial" font-size="9" fill="#888" text-anchor="middle">churn rate</text>
    <rect x="816" y="404" width="10" height="10" rx="2" fill="#f472b6"/>
    <text x="830" y="413" font-family="Arial" font-size="9" fill="#ccc">Churned (1,869)</text>
    <rect x="816" y="418" width="10" height="10" rx="2" fill="#34d399"/>
    <text x="830" y="427" font-family="Arial" font-size="9" fill="#ccc">Retained (5,174)</text>

    <!-- Model compare panel -->
    <rect x="1012" y="232" width="78" height="200" rx="5" fill="#1e1428"/>
    <text x="1051" y="250" font-family="Arial" font-size="9" font-weight="bold" fill="#fff" text-anchor="middle">Models</text>
    <text x="1022" y="272" font-family="Arial" font-size="8" fill="#888">RF</text>
    <rect x="1022" y="278" width="60" height="8" rx="3" fill="#34d399"/>
    <text x="1022" y="302" font-family="Arial" font-size="10" font-weight="bold" fill="#34d399">0.88</text>
    <text x="1022" y="328" font-family="Arial" font-size="8" fill="#888">LR</text>
    <rect x="1022" y="334" width="48" height="8" rx="3" fill="#fbbf24"/>
    <text x="1022" y="358" font-family="Arial" font-size="10" font-weight="bold" fill="#fbbf24">0.75</text>

    <!-- Predict panel -->
    <rect x="482" y="444" width="610" height="110" rx="5" fill="#1e1428"/>
    <text x="494" y="462" font-family="Arial" font-size="10" font-weight="bold" fill="#fff">Predict Customer Churn</text>
    <rect x="494" y="470" width="130" height="22" rx="3" fill="#0f0f1a"/>
    <text x="504" y="485" font-family="Arial" font-size="9" fill="#555">Tenure (months)</text>
    <rect x="634" y="470" width="130" height="22" rx="3" fill="#0f0f1a"/>
    <text x="644" y="485" font-family="Arial" font-size="9" fill="#555">Monthly Charges</text>
    <rect x="774" y="470" width="130" height="22" rx="3" fill="#0f0f1a"/>
    <text x="784" y="485" font-family="Arial" font-size="9" fill="#555">Contract Type</text>
    <rect x="914" y="470" width="166" height="22" rx="3" fill="#0f0f1a"/>
    <text x="924" y="485" font-family="Arial" font-size="9" fill="#555">Internet Service</text>
    <rect x="494" y="502" width="586" height="26" rx="4" fill="#f472b6"/>
    <text x="787" y="519" font-family="Arial" font-size="10" font-weight="bold" fill="#fff" text-anchor="middle">📊 Predict Churn Probability</text>
    <rect x="494" y="536" width="280" height="24" rx="4" fill="#f472b612" stroke="#f472b630" stroke-width="1"/>
    <text x="505" y="552" font-family="Arial" font-size="10" fill="#f472b6">⚠ 78.4% — HIGH RISK</text>
    <rect x="785" y="536" width="295" height="24" rx="4" fill="#34d39912" stroke="#34d39930" stroke-width="1"/>
    <text x="796" y="552" font-family="Arial" font-size="10" fill="#34d399">✓ Offer annual plan discount</text>
  </g>

  <!-- Monitor stand -->
  <rect x="670" y="588" width="60" height="60" rx="4" fill="#22101c"/>
  <ellipse cx="700" cy="655" rx="120" ry="18" fill="#180a12"/>
  <ellipse cx="700" cy="650" rx="115" ry="14" fill="#22101e"/>
</svg>
